<svg version="1.2" xmlns="http://www.w3.org/2000/svg" viewBox="0 0 724 724" width="724" height="724"><style>.a{fill:#3f53e0}.b{fill:#dda300}</style><path fill-rule="evenodd" class="a" d="m630.5 0c12.3 0 24.5 2.4 35.8 7.1 11.3 4.7 21.6 11.6 30.3 20.3 8.7 8.6 15.6 18.9 20.3 30.3 4.7 11.3 7.1 23.4 7.1 35.7v536.3c0 12.3-2.4 24.4-7.1 35.7-4.7 11.4-11.6 21.7-20.2 30.3-8.7 8.7-19 15.6-30.3 20.3-11.3 4.7-23.5 7.1-35.7 7.1h-536.3c-12.3 0-24.4-2.4-35.7-7.1-11.4-4.7-21.7-11.6-30.3-20.2-8.7-8.7-15.6-19-20.3-30.3-4.7-11.4-7.1-23.5-7.1-35.8v-536.3c0-12.3 2.4-24.4 7.1-35.7 4.7-11.4 11.6-21.7 20.3-30.3 8.6-8.7 18.9-15.6 30.3-20.3 11.3-4.7 23.5-7.1 35.7-7.1zm-536.1 29.3c-8.4 0-16.8 1.6-24.5 4.9-7.8 3.2-14.9 7.9-20.8 13.9-6 5.9-10.7 13-13.9 20.8-3.3 7.8-4.9 16.1-5 24.5v536.3c0.1 8.4 1.7 16.8 5 24.5 3.2 7.8 7.9 14.9 13.9 20.8 5.9 6 13 10.7 20.8 14 7.7 3.2 16.1 4.8 24.5 4.9h536.1c8.4 0 16.8-1.7 24.6-4.9 7.8-3.3 14.8-8 20.8-13.9 5.9-6 10.7-13.1 13.9-20.8 3.2-7.8 4.9-16.2 4.9-24.6v-536.3c0-8.4-1.7-16.7-4.9-24.5-3.2-7.8-7.9-14.8-13.9-20.8-5.9-5.9-13-10.7-20.7-13.9-7.8-3.2-16.1-4.9-24.6-4.9 0 0-536.2 0-536.2 0z"/><path class="a" d="m163.6 299h-32.9v-75.8l-61.4-131.5h34.4l34.6 75.2q3.7 8 6 15.4 2.5 7.4 3.4 11.6 0.8-4.2 3.1-11.6 2.6-7.4 6-15.4l33.8-75.2h34.3l-61.3 131.5z"/><path class="a" d="m154.2 588h-32.9v-109.3h-43.8v-30.1h43.8v-24.5q0-19.8 13-31.5 13.1-11.9 35.3-11.9h45.7v29.2h-45.2q-7.4 0-11.6 4-4.3 3.7-4.3 10.8v23.9h61.1v30.1h-61.1z"/><path class="a" d="m430.4 588h-136v-30.1h54.8v-96.3h-47.7v-29.8h79.5v126.1h49.4zm-68.2-182.9q-10.5 0-16.4-5.1-6-5.4-6-14.5 0-9.4 6-14.8 5.9-5.4 16.4-5.4 10.6 0 16.5 5.4 6 5.4 6 14.8 0 9.1-6 14.5-5.9 5.1-16.5 5.1z"/><path class="a" d="m640.7 588h-49.7q-15 0-26.4-6-11-6.2-17.3-17.3-6.2-11.1-6.2-25.8v-128.4h-50.6v-29.8h83.8v158.2q0 8.8 4.8 14.2 5.1 5.1 13.6 5.1h48z"/><path class="a" d="m629.4 299h-44.6q-21.9 0-34.1-11.9-12.2-12.2-12.2-33.5v-81h-42.9v-29.8h42.9v-44h32.9v44h60.8v29.8h-60.8v81q0 15.6 15.4 15.6h42.6z"/><path class="b" d="m330.3 268.5v21.2q-27.1-7-42-25.3-14.6-18.5-14.6-45.3v-32.5q0-17.6 6.7-31.7 6.8-14.3 19.5-24.3 12.9-10.1 30.4-14.6v20.6q-10.8 2.5-19 9.6-8 6.9-12.3 17.2-4.3 10.3-4.3 23.2v32.5q0 12.7 4.3 23 4.3 10.2 12.3 17 8.2 6.9 19 9.4zm41.6 21.2v-21.2q11.1-2.5 19-9.4 8-6.8 12.4-17 4.3-10.3 4.3-23v-32.5q0-12.9-4.3-23.2-4.4-10.3-12.4-17.2-7.9-7.1-19-9.6v-20.6q17.8 4.5 30.5 14.6 12.6 10 19.3 24.3 6.9 14.1 6.9 31.7v32.5q0 26.8-14.8 45.3-14.7 18.3-41.9 25.3z"/><path fill-rule="evenodd" class="b" d="m370.9 290.8v-21.6l0.8-0.2q2-0.5 3.9-1.1 1.9-0.6 3.8-1.4 1.8-0.8 3.6-1.7 1.8-1 3.5-2.1 1.6-1.1 3.1-2.3 1.6-1.3 3-2.6 1.4-1.4 2.7-2.9 1.3-1.5 2.4-3.2 1.2-1.7 2.3-3.4 1.1-1.8 2-3.7 0.9-1.9 1.6-3.8 0.7-1.9 1.3-3.9 0.6-2.2 1.1-4.4 0.5-2.3 0.8-4.5 0.3-2.3 0.4-4.5 0.1-2.3 0.1-4.6v-32.6q0-2.2-0.1-4.5-0.1-2.3-0.4-4.6-0.3-2.3-0.8-4.5-0.5-2.3-1.1-4.5-0.6-2-1.3-3.9-0.7-2-1.6-3.9-0.9-1.9-2-3.7-1.1-1.8-2.3-3.5-1.1-1.7-2.4-3.2-1.3-1.5-2.7-2.9-1.4-1.4-3-2.7-1.5-1.3-3.1-2.4-1.7-1.1-3.5-2.1-1.8-1-3.6-1.8-1.9-0.8-3.8-1.4-1.9-0.7-3.9-1.1l-0.8-0.2v-20.9l1.3 0.3q2.1 0.5 4.2 1.1 2.1 0.7 4.1 1.4 2.1 0.7 4.1 1.6 2 0.8 3.9 1.7 1.9 0.9 3.7 1.9 1.8 1 3.5 2.1 1.8 1.1 3.4 2.3 1.7 1.2 3.3 2.5 1.6 1.2 3.1 2.5 1.4 1.4 2.9 2.8 1.4 1.4 2.7 2.9 1.3 1.5 2.6 3 1.2 1.6 2.3 3.2 1.2 1.6 2.2 3.3 1 1.7 2 3.4 0.9 1.8 1.8 3.6 0.9 1.8 1.6 3.7 0.8 1.9 1.4 3.8 0.7 1.9 1.2 3.9 0.5 1.9 1 3.9 0.4 2.1 0.7 4.2 0.3 2.1 0.6 4.2 0.2 2.1 0.3 4.3 0.1 2.1 0.1 4.2v32.6q0 3.2-0.2 6.4-0.2 3.1-0.7 6.3-0.5 3.1-1.2 6.2-0.7 3.1-1.6 6.1-1 2.9-2.1 5.6-1.2 2.7-2.6 5.4-1.4 2.6-3 5.1-1.7 2.5-3.5 4.8-1.9 2.3-3.9 4.5-2.1 2.2-4.4 4.2-2.2 2-4.6 3.7-2.4 1.8-5 3.4-2.8 1.7-5.7 3.1-2.9 1.5-5.9 2.7-3 1.3-6.1 2.3-3.1 1-6.2 1.8zm2-20.1v17.5q2.9-0.8 5.8-1.7 2.8-1 5.6-2.2 2.8-1.2 5.4-2.5 2.7-1.4 5.3-2.9 2.5-1.5 4.8-3.3 2.4-1.7 4.6-3.6 2.1-2 4.2-4.1 2-2.1 3.8-4.4 1.8-2.2 3.4-4.6 1.5-2.5 2.9-5 1.4-2.5 2.5-5.2 1.1-2.7 2-5.4 0.9-3 1.6-6 0.7-3 1.2-6.1 0.4-3 0.6-6.1 0.3-3.1 0.2-6.2v-32.6q0-2.1-0.1-4.1-0.1-2.1-0.3-4.2-0.2-2.1-0.5-4.1-0.3-2.1-0.7-4.1-0.5-1.9-1-3.8-0.5-1.9-1.1-3.8-0.7-1.9-1.4-3.7-0.7-1.8-1.6-3.6-0.8-1.7-1.7-3.4-0.9-1.7-1.9-3.4-1.1-1.6-2.2-3.2-1.1-1.5-2.3-3-1.2-1.6-2.5-3-1.2-1.5-2.6-2.8-1.4-1.4-2.8-2.7-1.5-1.3-3-2.5-1.5-1.2-3.2-2.4-1.6-1.2-3.3-2.2-1.7-1.1-3.4-2.1-1.8-0.9-3.6-1.8-1.8-0.8-3.6-1.6-1.8-0.8-3.6-1.4-1.9-0.7-3.7-1.3-1.9-0.6-3.8-1.1v16.8q1.9 0.5 3.8 1.1 2 0.7 3.8 1.5 1.8 0.8 3.6 1.8 1.8 1 3.4 2.1 1.8 1.2 3.4 2.5 1.6 1.3 3.1 2.8 1.4 1.5 2.8 3.1 1.3 1.6 2.5 3.3 1.3 1.8 2.4 3.7 1.1 1.8 2 3.8 1 2 1.7 4 0.8 2.1 1.4 4.2 0.6 2.2 1.1 4.5 0.5 2.4 0.8 4.7 0.3 2.3 0.5 4.7 0.1 2.4 0.1 4.7v32.6q0 2.3-0.1 4.7-0.2 2.3-0.5 4.6-0.3 2.4-0.8 4.7-0.5 2.2-1.1 4.5-0.6 2.1-1.4 4.1-0.7 2-1.7 4-0.9 1.9-2 3.8-1.1 1.8-2.4 3.6-1.2 1.7-2.5 3.2-1.4 1.6-2.9 3.1-1.4 1.4-3 2.7-1.7 1.3-3.4 2.5-1.7 1.1-3.4 2-1.8 1-3.6 1.8-1.9 0.8-3.8 1.4-1.9 0.7-3.8 1.1zm-41.6 20.1l-1.3-0.3q-3.1-0.8-6.2-1.8-3.1-1.1-6.1-2.3-3-1.2-5.9-2.7-2.9-1.5-5.7-3.1-2.5-1.6-5-3.4-2.4-1.8-4.6-3.7-2.3-2-4.3-4.2-2.1-2.2-4-4.5-1.8-2.4-3.5-4.8-1.6-2.5-3-5.2-1.4-2.6-2.6-5.3-1.1-2.7-2-5.6-1-3-1.7-6.1-0.7-3.1-1.2-6.2-0.5-3.2-0.7-6.4-0.2-3.1-0.2-6.3v-32.6q0-2.1 0.1-4.2 0.1-2.2 0.4-4.3 0.2-2.1 0.5-4.2 0.3-2.1 0.8-4.2 0.4-2 0.9-4 0.5-1.9 1.2-3.8 0.6-2 1.4-3.8 0.8-1.9 1.6-3.8 0.9-1.7 1.8-3.5 1-1.7 2-3.4 1.1-1.7 2.2-3.3 1.1-1.6 2.4-3.2 1.2-1.5 2.5-3 1.3-1.5 2.7-2.9 1.5-1.4 2.9-2.8 1.5-1.3 3.1-2.6 1.6-1.2 3.3-2.4 1.6-1.2 3.4-2.3 1.7-1.1 3.5-2.1 1.8-1 3.7-1.9 1.9-0.9 3.9-1.8 2.1-0.8 4.1-1.5 2-0.8 4.1-1.4 2.1-0.6 4.2-1.1l1.3-0.3v20.8l-0.8 0.2q-2 0.5-3.9 1.1-1.9 0.7-3.8 1.5-1.8 0.8-3.6 1.8-1.8 1-3.4 2.1-1.7 1.1-3.2 2.4-1.6 1.2-3 2.6-1.4 1.5-2.7 3-1.3 1.5-2.4 3.1-1.2 1.8-2.3 3.6-1 1.8-1.9 3.7-0.9 1.9-1.7 3.8-0.7 2-1.3 4-0.6 2.2-1.1 4.5-0.5 2.2-0.8 4.5-0.3 2.3-0.4 4.5-0.1 2.3-0.1 4.6v32.6q0 2.3 0.1 4.5 0.1 2.3 0.4 4.6 0.3 2.2 0.8 4.4 0.5 2.3 1.1 4.4 0.6 2 1.3 4 0.7 1.9 1.6 3.8 0.9 1.9 2 3.6 1.1 1.8 2.3 3.5 1.1 1.6 2.4 3.1 1.3 1.5 2.7 2.9 1.4 1.4 3 2.7 1.5 1.2 3.1 2.3 1.7 1.1 3.5 2.1 1.8 0.9 3.6 1.7 1.9 0.8 3.8 1.4 1.9 0.6 3.9 1.1l0.8 0.2zm-2-173.8q-1.9 0.5-3.8 1.1-1.9 0.6-3.7 1.2-1.9 0.7-3.7 1.5-1.8 0.7-3.6 1.6-1.8 0.8-3.5 1.8-1.8 1-3.5 2-1.6 1.1-3.3 2.3-1.6 1.1-3.2 2.4-1.5 1.2-2.9 2.5-1.5 1.3-2.8 2.6-1.4 1.4-2.7 2.9-1.3 1.4-2.5 2.9-1.2 1.5-2.3 3.1-1.1 1.6-2.1 3.2-1 1.7-1.9 3.3-0.9 1.7-1.8 3.5-0.8 1.8-1.5 3.6-0.8 1.8-1.4 3.7-0.6 1.8-1.2 3.7-0.5 1.9-0.9 3.9-0.4 2-0.7 4.1-0.3 2-0.6 4.1-0.2 2.1-0.3 4.1-0.1 2.1-0.1 4.2v32.6q0 3.1 0.2 6.2 0.2 3.1 0.7 6.1 0.4 3.1 1.1 6.1 0.7 3 1.7 6 0.8 2.7 2 5.4 1.1 2.6 2.5 5.2 1.3 2.5 2.9 4.9 1.6 2.4 3.4 4.7 1.8 2.3 3.8 4.4 2 2.1 4.2 4 2.2 2 4.5 3.7 2.4 1.7 4.9 3.2 2.5 1.6 5.2 3 2.7 1.3 5.5 2.5 2.8 1.2 5.6 2.1 2.9 1 5.8 1.8v-17.5q-2-0.5-3.9-1.1-1.9-0.7-3.7-1.5-1.9-0.8-3.6-1.7-1.8-1-3.5-2.1-1.7-1.1-3.3-2.4-1.6-1.3-3.1-2.8-1.5-1.4-2.8-3-1.4-1.6-2.6-3.3-1.2-1.7-2.3-3.6-1.1-1.8-2-3.8-1-1.9-1.8-3.9-0.7-2.1-1.3-4.1-0.7-2.3-1.1-4.6-0.5-2.3-0.8-4.6-0.3-2.3-0.5-4.6-0.1-2.4-0.1-4.7v-32.6q0-2.4 0.1-4.7 0.2-2.4 0.5-4.7 0.3-2.4 0.8-4.7 0.4-2.3 1.1-4.6 0.6-2.1 1.3-4.1 0.8-2.1 1.7-4 1-2 2.1-3.9 1.1-1.9 2.3-3.6 1.2-1.7 2.6-3.3 1.3-1.6 2.8-3.1 1.5-1.5 3.1-2.8 1.6-1.3 3.3-2.5 1.7-1.1 3.5-2.1 1.7-1 3.6-1.8 1.8-0.8 3.7-1.5 1.9-0.6 3.9-1.1z"/></svg>